<svg xmlns="http://www.w3.org/2000/svg" version="1.1" xmlns:xlink="http://www.w3.org/1999/xlink" xmlns:svgjs="http://svgjs.dev/svgjs" width="1440" height="560" preserveAspectRatio="none" viewBox="0 0 1440 560"><g mask="url(&quot;#SvgjsMask1092&quot;)" fill="none"><rect width="1440" height="560" x="0" y="0" fill="url(&quot;#SvgjsLinearGradient1093&quot;)"></rect><path d="M0 0L311.77 0L0 149.96z" fill="rgba(255, 255, 255, .1)"></path><path d="M0 149.96L311.77 0L388.16999999999996 0L0 202.32z" fill="rgba(255, 255, 255, .075)"></path><path d="M0 202.32L388.16999999999996 0L782.6899999999999 0L0 299.56z" fill="rgba(255, 255, 255, .05)"></path><path d="M0 299.56L782.6899999999999 0L802.9899999999999 0L0 362.04z" fill="rgba(255, 255, 255, .025)"></path><path d="M1440 560L1299.4 560L1440 397.48z" fill="rgba(0, 0, 0, .1)"></path><path d="M1440 397.48L1299.4 560L588.3600000000001 560L1440 256.16z" fill="rgba(0, 0, 0, .075)"></path><path d="M1440 256.15999999999997L588.36 560L285.97 560L1440 169.35999999999996z" fill="rgba(0, 0, 0, .05)"></path><path d="M1440 169.35999999999996L285.97 560L127.59000000000003 560L1440 90.17999999999995z" fill="rgba(0, 0, 0, .025)"></path></g><defs><mask id="SvgjsMask1092"><rect width="1440" height="560" fill="#ffffff"></rect></mask><linearGradient x1="15.28%" y1="139.29%" x2="84.72%" y2="-39.29%" gradientUnits="userSpaceOnUse" id="SvgjsLinearGradient1093"><stop stop-color="rgba(1, 85, 49, 1)" offset="0.05"></stop><stop stop-color="rgba(0, 69, 39, 1)" offset="0.68"></stop><stop stop-color="rgba(0, 69, 39, 1)" offset="0.73"></stop><stop stop-color="rgba(0, 69, 39, 1)" offset="0.85"></stop><stop stop-color="rgba(0, 69, 39, 1)" offset="1"></stop></linearGradient></defs></svg>