<svg xmlns="http://www.w3.org/2000/svg" version="1.1" xmlns:xlink="http://www.w3.org/1999/xlink" xmlns:svgjs="http://svgjs.dev/svgjs" width="1440" height="560" preserveAspectRatio="none" viewBox="0 0 1440 560"><g mask="url(&quot;#SvgjsMask1008&quot;)" fill="none"><rect width="1440" height="560" x="0" y="0" fill="rgba(58, 60, 61, 1)"></rect><path d="M0,580.847C106.862,565.682,204.398,516.569,288.515,448.938C366.523,386.219,403.905,292.808,460.737,210.412C531.684,107.553,679.973,28.46,664.017,-95.471C648.122,-218.929,490.104,-263.894,390.122,-338.043C311.566,-396.302,236.713,-459.353,141.76,-482.789C49.394,-505.587,-43.766,-484.576,-137.496,-468.269C-243.076,-449.901,-366.198,-458.94,-440.304,-381.526C-514.745,-303.762,-502.396,-180.954,-514.889,-74.03C-527.049,30.038,-539.976,132.889,-512.214,233.92C-480.91,347.842,-444.243,472.791,-346.423,539.045C-248.13,605.62,-117.539,597.528,0,580.847" fill="#262728"></path><path d="M1440 1123.452C1567.765 1159.585 1706.872 1218.021 1828.151 1163.976 1951.471 1109.022 2015.2240000000002 970.893 2064.455 845.179 2111.871 724.1 2148.848 586.106 2101.945 464.827 2057.101 348.871 1901.465 324.41499999999996 1825.112 226.298 1741.987 119.47800000000001 1772.031-90.41499999999996 1641.633-126.69799999999998 1510.499-163.18600000000004 1422.682 23.005999999999972 1299.035 79.91699999999997 1200.068 125.469 1077.353 103.952 992.379 172.135 900.151 246.13799999999998 815.359 351.635 813.06 469.86 810.787 586.731 913.429 674.174 980.759 769.729 1036.098 848.2660000000001 1095.129 919.568 1171.243 978.194 1253.587 1041.618 1339.985 1095.167 1440 1123.452" fill="#4e5152"></path></g><defs><mask id="SvgjsMask1008"><rect width="1440" height="560" fill="#ffffff"></rect></mask></defs></svg>