<svg xmlns="http://www.w3.org/2000/svg" version="1.1" xmlns:xlink="http://www.w3.org/1999/xlink" xmlns:svgjs="http://svgjs.dev/svgjs" width="1440" height="560" preserveAspectRatio="none" viewBox="0 0 1440 560"><g mask="url(&quot;#SvgjsMask1107&quot;)" fill="none"><rect width="1440" height="560" x="0" y="0" fill="rgba(110, 87, 224, 1)"></rect><path d="M0,436.203C81.157,425.148,155.317,393.173,224.548,349.404C294.222,305.355,367.912,258.619,400.59,182.943C433.027,107.825,416.075,22.731,400.278,-57.551C385.159,-134.386,360.709,-209.001,311.482,-269.901C261.139,-332.182,191.137,-370.571,119.055,-405.464C34.41,-446.438,-50.144,-496.466,-143.988,-490.379C-248.416,-483.606,-359.262,-449.765,-427.053,-370.044C-494.701,-290.491,-484.403,-175.146,-499.868,-71.87C-515.432,32.067,-563.015,141.597,-517.878,236.507C-472.841,331.207,-365.476,378.719,-267.634,416.447C-182.445,449.296,-90.468,448.526,0,436.203" fill="#3720ab"></path><path d="M1440 965.552C1521.314 979.9110000000001 1610.366 977.794 1680.711 934.553 1751.513 891.031 1791.607 811.4970000000001 1818.532 732.87 1843.759 659.204 1836.48 581.614 1828.083 504.202 1819.399 424.14300000000003 1813.601 341.995 1768.8690000000001 275.033 1720.925 203.26299999999998 1651.505 145.724 1569.877 117.67899999999997 1486.27 88.95400000000001 1392.786 86.27800000000002 1310.038 117.39100000000002 1230.006 147.483 1167.285 212.26100000000002 1123.311 285.588 1083.58 351.84000000000003 1084.5149999999999 430.88300000000004 1075.995 507.664 1067.7649999999999 581.833 1041.405 660.028 1074.3319999999999 726.995 1107.05 793.5360000000001 1186.252 817.691 1248.355 858.206 1310.9470000000001 899.04 1366.405 952.556 1440 965.552" fill="#bdb3f1"></path></g><defs><mask id="SvgjsMask1107"><rect width="1440" height="560" fill="#ffffff"></rect></mask></defs></svg>